<?xml version="1.0" encoding="UTF-8"?>
<svg width="1793px" height="1455px" viewBox="0 0 1793 1455" version="1.1" xmlns="http://www.w3.org/2000/svg" xmlns:xlink="http://www.w3.org/1999/xlink">
    <!-- Generator: Sketch 51.2 (57519) - http://www.bohemiancoding.com/sketch -->
    <title>Logo</title>
    <desc>Created with Sketch.</desc>
    <defs></defs>
    <g id="Page-1" stroke="none" stroke-width="1" fill="none" fill-rule="evenodd">
        <g id="Logo" transform="translate(-109.000000, -152.000000)" fill="#000000">
            <g id="Dumbbell" transform="translate(1005.421708, 839.676587) rotate(32.000000) translate(-1005.421708, -839.676587) translate(75.421708, 430.676587)">
                <g id="Right-Side" transform="translate(1430.000000, -0.000000)">
                    <rect id="Rectangle-2" x="0" y="0" width="143.097634" height="817.700768" rx="2"></rect>
                    <rect id="Rectangle-2" x="143.097634" y="102.212596" width="143.097634" height="613.275576" rx="2"></rect>
                    <rect id="Rectangle-2" x="286.195269" y="204.425192" width="143.097634" height="408.850384" rx="2"></rect>
                </g>
                <rect id="Rectangle" x="1273" y="315" width="157" height="187"></rect>
                <polygon id="Triangle" points="1273 315 1273 502 1221 502"></polygon>
                <polygon id="Triangle" transform="translate(591.000000, 362.000000) scale(-1, -1) translate(-591.000000, -362.000000) " points="617 315 617 409 565 409"></polygon>
                <rect id="Rectangle" x="430" y="315" width="135" height="187"></rect>
                <g id="Left-Side" transform="translate(215.000000, 409.000000) scale(-1, 1) translate(-215.000000, -409.000000) translate(0.000000, -0.000000)">
                    <rect id="Rectangle-2" x="0" y="0" width="143.097634" height="817.700768" rx="2"></rect>
                    <rect id="Rectangle-2" x="143.097634" y="102.212596" width="143.097634" height="613.275576" rx="2"></rect>
                    <rect id="Rectangle-2" x="286.195269" y="204.425192" width="143.097634" height="408.850384" rx="2"></rect>
                </g>
            </g>
            <g id="Fist" transform="translate(559.000000, 497.000000)" fill-rule="nonzero">
                <path d="M323.968254,0.976845265 C312.403678,1.26558413 301.092792,7.07685705 294.412855,17.4930975 L237.562176,106.159294 C231.82968,115.098516 212.837729,131.389396 215.482554,140.930351 C217.768543,149.177045 236.78998,158.750546 244.516387,163.705394 L317.709463,195.173201 C334.375092,205.860378 349.269066,201.060024 359.956298,184.394173 L416.633122,95.901832 C421.398147,88.4706173 428.852506,77.983722 427.75986,69.823539 C426.402954,59.6829078 415.08873,52.101037 405.854094,46.1792199 L344.135467,6.54021445 C337.885578,2.53247456 330.907444,0.803601949 323.968254,0.976845265 Z M465.834168,71.3882366 C453.666523,71.4828138 441.909455,77.6263312 435.235637,88.7737653 L382.03592,177.613817 C376.635557,186.633874 363.906012,201.263199 366.736654,210.646322 C369.236832,218.933683 386.413457,222.219242 394.379645,226.988719 C406.968993,233.487457 454.085445,246.115415 454.70743,262.976763 C455.410083,282.033361 436.770293,317.033073 450.013337,337.386826 C456.673802,341.374593 477.179547,314.457066 490.521619,294.792281 C496.259121,286.335514 502.803034,281.128757 504.951608,278.449884 C510.027069,272.122163 515.609632,267.656558 520.077018,260.195078 L573.276735,171.528882 C583.446574,154.542247 577.919645,132.323764 560.93301,122.15398 L484.610539,76.4300399 C478.771227,72.9341856 472.20812,71.3387782 465.834168,71.3882366 Z M183.493182,154.143353 C182.650721,154.18786 181.746673,154.193424 180.885352,154.317487 C172.692067,156.834188 165.443999,160.719144 158.805731,165.444225 C158.377908,165.805288 157.847663,166.111106 157.414889,166.487357 C147.40928,175.186018 136.093276,187.77915 124.208529,202.996967 C113.070163,218.967787 103.046529,235.953365 91.1760242,249.590184 C44.9179446,319.331968 0.771274888,404.38292 0.771274888,421.706918 C0.771274888,452.410151 97.9502607,554.14537 145.245018,636.592053 C191.603461,717.406667 249.400191,775.655643 243.994822,788.020008 C229.655794,870.816628 221.913809,906.683168 207.832922,1008.29466 C193.752591,1109.90648 208.35421,1110 208.35421,1110 C208.35421,1110 585.179007,1108.74351 592.574394,1108.08759 C599.969224,1107.43167 598.485474,1096.96085 598.485474,1096.96085 C598.485474,1084.96183 600.923342,1070.94337 603.353422,1060.27739 C605.783502,1049.6113 605.26583,974.792548 605.26583,944.663622 C601.644633,916.066513 610.580517,810.445783 611.872331,805.579392 C613.164702,800.713002 620.516972,791.89317 629.084004,783.325915 C637.651593,774.758716 651.685192,748.033292 651.685192,748.033292 C668.830383,725.176357 672.683294,730.295268 681.066735,712.392958 C686.829329,700.086452 695.145397,660.370672 701.060093,634.158079 C671.878608,616.03813 643.060801,597.027597 613.610884,579.567519 L608.742936,583.913901 C605.938998,587.841862 600.846011,587.544556 598.137763,581.132217 C595.430071,574.719877 588.575722,570.179333 588.575722,570.179333 C580.067106,566.976836 561.311041,546.17117 536.245281,523.933827 C514.654402,497.128402 488.181666,499.134942 474.005088,493.509152 C459.828511,487.883473 363.596689,467.593699 351.263256,466.909293 C338.929822,466.224999 351.263256,482.382413 351.263256,482.382413 C373.634676,511.84802 446.377119,599.161316 446.709808,599.560877 C446.264739,599.20649 445.223554,599.521933 457.314981,627.551578 C471.133833,659.588796 480.73454,694.983062 489.652064,710.306695 C497.037993,741.714028 512.767307,751.531984 521.293726,756.030635 C529.81959,760.529398 526.68324,764.375689 526.68324,764.375689 C521.056449,767.421523 508.901322,779.674954 502.169645,779.674954 C495.437968,779.674954 487.565801,789.584706 487.565801,789.584706 C479.291958,796.993278 490.695196,988.349645 490.695196,996.994063 C490.695196,1005.63832 486.001103,1007.77309 486.001103,1007.77309 C486.001103,1007.77309 481.740397,1003.58031 483.045563,999.080327 C484.35073,994.58034 480.935377,943.370695 478.873036,931.624475 C474.207873,921.943935 475.917496,909.892565 475.917496,909.892565 C478.927835,895.53718 465.184088,806.709034 461.661363,794.97422 C458.138081,783.239461 461.452737,770.600877 456.61956,765.766531 C451.785548,760.932131 406.159801,765.550673 402.37671,761.76786 C398.593619,757.98488 402.37671,757.943044 402.37671,757.943044 C425.306692,755.804206 477.304723,717.19715 477.482194,705.612602 C477.660222,694.028054 313.99202,452.035681 298.758959,443.091119 C283.526454,434.146501 257.001144,428.746194 249.557913,425.010169 C242.115237,421.274088 229.606836,410.867584 210.440473,408.320061 C191.27411,405.772483 188.677964,401.90978 187.31772,399.105731 C185.957476,396.301626 202.616985,393.890072 202.616985,393.890072 C224.733603,378.477871 238.608368,340.203671 232.69395,325.217234 C226.779532,310.230741 231.650818,306.962429 231.650818,306.962429 C249.899225,315.463201 300.845222,370.941174 300.845222,370.941174 C335.819899,378.593867 398.422823,353.949588 419.066818,344.341316 C439.710812,334.733099 444.664714,276.581315 441.146439,264.541739 C439.682717,259.532815 400.655737,240.421362 353.523374,219.513219 C351.791331,219.136023 349.980621,218.51643 348.481571,217.426956 C306.697831,199.009589 259.843191,179.723502 225.392028,167.182778 C226.565787,169.568684 227.908729,171.885383 229.042989,174.136989 C220.687643,170.563971 212.817589,164.430134 204.529393,159.880856 C204.273478,159.797405 204.086549,159.78906 203.833972,159.706722 C194.967631,156.82512 188.037898,154.894019 183.492903,154.143353 L183.493182,154.143353 Z M589.966843,195.868622 C579.581702,196.095608 569.401849,200.691006 562.497708,209.429335 L425.847452,405.016533 C413.573547,420.551351 416.22338,443.33485 431.758532,455.608421 L496.084988,486.380807 C511.619584,498.654267 534.402971,496.00449 546.676876,480.469727 L678.806895,313.220941 C691.080243,297.686067 688.430967,274.902512 672.895815,262.629052 L613.089596,203.518255 C606.293384,198.148546 598.044855,195.692096 589.966843,195.868622 Z M707.145306,313.047086 C704.072101,313.138325 701.073445,314.156143 698.800253,316.350336 L551.71868,492.639597 C542.626466,501.416313 541.540218,515.382428 549.458561,523.585838 L589.619132,565.137252 C597.538032,573.340774 611.473159,572.870836 620.565373,564.09412 L781.555369,408.667494 C790.647584,399.890722 791.559976,385.924718 783.641633,377.721252 L733.745165,326.607798 C727.806269,320.455212 716.366035,312.77309 707.145306,313.047086 Z M433.844795,358.24946 L348.307994,381.893779 C334.139205,385.723213 303.898677,395.037239 295.282131,380.676792 C286.666141,366.316346 286.444441,362.367355 275.636484,362.943553 C257.850949,366.452092 262.450186,381.758701 266.596009,386.587872 C274.978337,396.351251 331.939171,434.644311 362.042562,445.177104 C365.734413,446.468696 368.911653,444.213695 374.560142,435.788918 C380.208631,427.364142 429.788543,371.809449 434.192506,365.203672 C437.639013,358.406403 433.844795,358.24946 433.844795,358.24946 Z" id="path3627"></path>
            </g>
        </g>
    </g>
</svg>